<svg xmlns="http://www.w3.org/2000/svg" viewBox="0 0 32 32" width="32" height="32">
  <title>VELOX</title>
  <rect x="0.5" y="0.5" width="31" height="31" rx="5.9" fill="#1A1B1F" stroke="#45484F" stroke-width="1"/>
  <g shape-rendering="crispEdges">
    <rect x="7" y="6" width="4" height="1" fill="#ECE9E2"/>
    <rect x="23" y="6" width="4" height="1" fill="#ECE9E2"/>
    <rect x="7" y="7" width="4" height="1" fill="#ECE9E2"/>
    <rect x="23" y="7" width="4" height="1" fill="#ECE9E2"/>
    <rect x="7" y="8" width="4" height="1" fill="#ECE9E2"/>
    <rect x="23" y="8" width="4" height="1" fill="#ECE9E2"/>
    <rect x="8" y="9" width="4" height="1" fill="#ECE9E2"/>
    <rect x="22" y="9" width="4" height="1" fill="#ECE9E2"/>
    <rect x="8" y="10" width="4" height="1" fill="#ECE9E2"/>
    <rect x="22" y="10" width="4" height="1" fill="#ECE9E2"/>
    <rect x="9" y="11" width="4" height="1" fill="#ECE9E2"/>
    <rect x="21" y="11" width="4" height="1" fill="#ECE9E2"/>
    <rect x="9" y="12" width="4" height="1" fill="#ECE9E2"/>
    <rect x="21" y="12" width="4" height="1" fill="#ECE9E2"/>
    <rect x="10" y="13" width="4" height="1" fill="#ECE9E2"/>
    <rect x="20" y="13" width="4" height="1" fill="#ECE9E2"/>
    <rect x="10" y="14" width="4" height="1" fill="#ECE9E2"/>
    <rect x="20" y="14" width="4" height="1" fill="#ECE9E2"/>
    <rect x="9" y="17" width="4" height="1" fill="#FF5A1F"/>
    <rect x="17" y="17" width="4" height="1" fill="#FF5A1F"/>
    <rect x="10" y="18" width="4" height="1" fill="#FF5A1F"/>
    <rect x="16" y="18" width="4" height="1" fill="#FF5A1F"/>
    <rect x="10" y="19" width="4" height="1" fill="#FF5A1F"/>
    <rect x="16" y="19" width="4" height="1" fill="#FF5A1F"/>
    <rect x="11" y="20" width="8" height="1" fill="#FF5A1F"/>
    <rect x="11" y="21" width="8" height="1" fill="#FF5A1F"/>
    <rect x="12" y="22" width="6" height="1" fill="#FF5A1F"/>
    <rect x="12" y="23" width="6" height="1" fill="#FF5A1F"/>
    <rect x="13" y="24" width="4" height="1" fill="#FF5A1F"/>
    <rect x="13" y="25" width="4" height="1" fill="#FF5A1F"/>
  </g>
</svg>
